SplineFontDB: 3.0
FontName: KisStM
FullName: Sorts Mill Kis
FamilyName: Sorts Mill Kis
Weight: Regular
Copyright: Created by trashman with FontForge 2.0 (http://fontforge.sf.net)
UComments: "Cut 3200-dpi samples to 640 pixels high. Scale by a factor of 1.1.+AAoACgAA-Cut 6400-dpi samples to 1280 pixels high. Scale by a factor of 1.1." 
Version: 001.000
ItalicAngle: 0
UnderlinePosition: -100
UnderlineWidth: 49
Ascent: 700
Descent: 300
LayerCount: 3
Layer: 0 0 "Back"  1
Layer: 1 0 "Fore"  0
Layer: 2 0 "backup"  0
NeedsXUIDChange: 1
XUID: [1021 658 797806517 2478896]
FSType: 0
OS2Version: 0
OS2_WeightWidthSlopeOnly: 0
OS2_UseTypoMetrics: 1
CreationTime: 1263111985
ModificationTime: 1264497464
OS2TypoAscent: 0
OS2TypoAOffset: 1
OS2TypoDescent: 0
OS2TypoDOffset: 1
OS2TypoLinegap: 90
OS2WinAscent: 0
OS2WinAOffset: 1
OS2WinDescent: 0
OS2WinDOffset: 1
HheadAscent: 0
HheadAOffset: 1
HheadDescent: 0
HheadDOffset: 1
MarkAttachClasses: 1
DEI: 91125
LangName: 1033 
Encoding: UnicodeBmp
UnicodeInterp: none
NameList: Adobe Glyph List
DisplaySize: -72
AntiAlias: 1
FitToEm: 1
WinInfo: 96 8 6
BeginPrivate: 9
BlueValues 23 [-16 1 392 415 657 682]
OtherBlues 11 [-293 -278]
BlueFuzz 1 0
BlueShift 1 3
BlueScale 8 0.039625
StdHW 4 [24]
StdVW 4 [73]
StemSnapH 7 [24 31]
StemSnapV 8 [73 100]
EndPrivate
Grid
-758 1 m 6
 972 1 l 6
-758 394 m 2
 972 394 l 2
EndSplineSet
BeginChars: 65536 66

StartChar: a
Encoding: 97 97 0
Width: 390
VWidth: 0
Flags: W
HStem: -13 46<95.0421 193.601> -8 51<272.5 351.562> 370 39<140.03 222.875>
VStem: 30 73<255.322 336.789> 33 78<41.9267 120.985> 241 73<53.8828 184.999 206.918 353.496>
LayerCount: 3
Back
SplineSet
366 64 m 4x74
 370 64 375 62 375 54 c 4
 375 20 327 -8 295 -8 c 4x74
 248 -8 242 37 241 39 c 5
 239 38 177 -13 121 -13 c 4
 70 -13 33 21 33 67 c 4xac
 33 132 109 165 176 191 c 4
 238 215 241 206 241 217 c 6
 241 253 l 6
 241 321 238 370 172 370 c 4
 164 370 122 361 110 347 c 4
 106 342 103 334 103 324 c 4
 103 316 106 306 106 292 c 4
 106 266 86 252 67 252 c 4
 48 252 30 266 30 294 c 4
 30 305 34 317 42 327 c 4
 77 369 172 409 215 409 c 4
 272 409 314 374 314 322 c 6
 314 135 l 6
 314 62 314 43 332 43 c 4
 354 43 356 64 366 64 c 4x74
234 183 m 4
 230 183 111 145 111 88 c 4
 111 70 120 33 158 33 c 4xac
 194 33 238 65 238 69 c 6
 239 165 l 6
 239 179 238 183 234 183 c 4
EndSplineSet
Fore
SplineSet
366 64 m 0x74
 370 64 375 62 375 54 c 0
 375 20 327 -8 295 -8 c 0x74
 250 -8 244 38 243 40 c 1
 241 39 177 -13 121 -13 c 0
 70 -13 33 21 33 67 c 0xac
 33 132 109 165 176 191 c 0
 238 215 241 210 241 223 c 2
 241 253 l 2
 241 321 238 370 172 370 c 0
 164 370 122 361 110 347 c 0
 106 342 103 334 103 324 c 0
 103 316 106 306 106 292 c 0
 106 266 86 252 67 252 c 0
 48 252 30 266 30 294 c 0
 30 305 34 317 42 327 c 0
 77 369 172 409 215 409 c 0
 272 409 314 374 314 322 c 2
 314 135 l 2
 314 62 314 43 332 43 c 0
 354 43 356 64 366 64 c 0x74
238 185 m 0
 234 185 111 145 111 88 c 0
 111 70 121 33 159 33 c 0xac
 195 33 241 67 241 71 c 2
 241 177 l 2
 241 183 241 185 238 185 c 0
EndSplineSet
Validated: 1
Layer: 2
SplineSet
241 39 m 5x74
 239.033203125 38.0869140625 177.0234375 -13.3037109375 120.712890625 -13.3037109375 c 4
 69.931640625 -13.3037109375 33 21.443359375 33 67 c 4xac
 33 132 109 165 176 191 c 4
 238 215 241 206 241 217 c 6
 241 253 l 6
 241 321 238 370 172 370 c 4
 164 370 122 361 110 347 c 4
 106 342 103 334 103 324 c 4
 103 316 106 306 106 292 c 4
 106 266 86 252 67 252 c 4
 48 252 30 266 30 294 c 4
 30 305 34 317 42 327 c 4
 77 369 172 409 215 409 c 4
 272 409 314 374 314 322 c 6
 314 135 l 6
 314 62 315 43 330 43 c 4
 340 43 347 48 352 53 c 6
 361 62 l 6
 363 64 364 66 367 66 c 4
 372 66 380 58 380 54 c 4
 380 31 322 -11 297 -11 c 4
 255 -11 241 39 241 39 c 5x74
234 183 m 4
 230 183 111 145 111 88 c 4
 111 70 120 33 158 33 c 4
 194 33 238 65 238 69 c 6
 239 165 l 6
 239 179 238 183 234 183 c 4
EndSplineSet
EndChar

StartChar: M
Encoding: 77 77 1
Width: 912
VWidth: 0
Flags: W
HStem: -5 31<37.0119 93.3305 140.013 197.972 610.115 694.159 803.719 872.988> 625 33<94.1084 176.157 777.939 853.945>
VStem: 37 100<3.5 80.5> 698 96<28.5438 270.444>
LayerCount: 3
Fore
SplineSet
141 625 m 2
 109 625 l 2
 100 625 94 626 94 637 c 0
 94 655 98 658 107 658 c 0
 149 656 129 655 244 655 c 2
 257 655 l 2
 269 655 274 653 279 639 c 2
 459 134 l 1
 689 646 l 2
 692 653 698 655 706 655 c 2
 772 655 l 2
 804 655 835 657 845 657 c 0
 852 657 854 652 854 638 c 0
 854 624 852 627 813 624 c 0
 781 622 775 615 775 586 c 0
 775 573 775 555 776 532 c 2
 794 104 l 2
 797.359028864 39.5066458076 805 29 825 26 c 0
 835 24 847.60570596 24.6101364988 865 21 c 0
 871 20 873 17 873 10 c 0
 873 -2 869 -5 861 -5 c 0
 844 -5 794 1 747 1 c 0
 720 1 638 -5 625 -5 c 0
 609 -5 610 3 610 8 c 0
 610 26 619 22 677 26 c 0
 697 27 698 51 698 96 c 0
 698 133 686 554 683 554 c 0
 680 554 575 322 435 14 c 0
 431 6 430 3 421 3 c 2
 417 3 l 2
 410 3 406 3 402 16 c 0
 399 25 394 37 389 52 c 0
 381 75 208 568 204 568 c 0
 200 568 137 96 137 65 c 0
 137 29 148 26 174 26 c 0
 196 26 198 18 198 13 c 0
 198 -1 196 -5 182 -5 c 0
 176 -5 134 1 112 1 c 0
 100 1 57 -5 54 -5 c 0
 41 -5 37 -3 37 10 c 0
 37 27 47 23 63 26 c 0
 88 30 97 35 103 75 c 0
 176 587 177 592 177 599 c 0
 177 621 168 625 141 625 c 2
EndSplineSet
Validated: 1
Layer: 2
SplineSet
141 625 m 6
 109 625 l 6
 100 625 94 626 94 637 c 4
 94 655 98 658 107 658 c 4
 149 656 129 655 244 655 c 6
 257 655 l 6
 269 655 274 653 279 639 c 6
 459 134 l 5
 689 646 l 6
 692 653 698 655 706 655 c 6
 772 655 l 6
 804 655 835 657 845 657 c 4
 852 657 854 652 854 638 c 4
 854 624 852 627 813 624 c 4
 781 622 775 615 775 586 c 4
 775 573 775 555 776 532 c 6
 794 104 l 6
 798 11 810 30 865 21 c 4
 871 20 873 17 873 10 c 4
 873 -2 869 -5 861 -5 c 4
 844 -5 794 1 747 1 c 4
 720 1 638 -5 625 -5 c 4
 609 -5 610 3 610 8 c 4
 610 26 619 22 677 26 c 4
 697 27 698 51 698 96 c 4
 698 133 686 554 683 554 c 4
 680 554 575 322 435 14 c 4
 431 6 430 3 421 3 c 6
 417 3 l 6
 410 3 406 3 402 16 c 4
 399 25 394 37 389 52 c 4
 381 75 208 568 204 568 c 4
 200 568 137 96 137 65 c 4
 137 29 148 26 174 26 c 4
 196 26 198 18 198 13 c 4
 198 -1 196 -5 182 -5 c 4
 176 -5 134 1 112 1 c 4
 96 1 62 -3 59 -3 c 4
 42 -3 39 -1 39 12 c 4
 39 23 43 26 59 29 c 4
 78 32 97 35 103 75 c 4
 176 587 177 592 177 599 c 4
 177 621 168 625 141 625 c 6
EndSplineSet
EndChar

StartChar: b
Encoding: 98 98 2
Width: 475
VWidth: 0
Flags: W
HStem: -16 31<196.505 293.754> 1 21G<74.5 82> 379 29<194.248 292.888> 643 20G<144 146.5>
VStem: 75 76<55.7661 350.019 380 592.375> 351 88<97.2057 303.342>
LayerCount: 3
Fore
SplineSet
248 408 m 0x7c
 372 408 439 315 439 202 c 0
 439 99 379 -16 246 -16 c 0xbc
 174 -16 129 21 125 21 c 0
 119 21 86 1 78 1 c 0
 71 1 70 6 70 14 c 0
 72 52 75 42 75 299 c 2
 75 498 l 2
 75 589 74 584 33 601 c 0
 29 603 28 604 28 607 c 2
 28 610 l 2
 28 618 29 618 34 620 c 0
 93 639 142 663 146 663 c 0
 147 663 153 656 153 654 c 0
 153 546 151 590 151 380 c 1
 151 380 202 408 248 408 c 0x7c
249 379 m 0
 184 379 151 326 151 326 c 1
 151 178 l 2
 151 91 162 15 252 15 c 0
 323 15 351 114 351 207 c 0
 351 260 337 379 249 379 c 0
EndSplineSet
Validated: 1
Layer: 2
SplineSet
248 408 m 4xb8
 372 408 437 315 437 202 c 4
 437 99 379 -16 246 -16 c 4xb8
 174 -16 129 21 125 21 c 4
 119 21 86 1 78 1 c 4x78
 71 1 70 6 70 14 c 4
 70 52 75 42 75 299 c 6
 75 498 l 6
 75 570 72 582 54 591 c 6
 33 601 l 6
 27 603 28 607 28 610 c 4
 28 616 29 618 34 620 c 4
 93 639 141 663 145 663 c 4
 147 663 153 657 153 655 c 4
 153 547 151 590 151 380 c 5
 151 380 202 408 248 408 c 4xb8
249 378 m 4
 184 378 151 326 151 326 c 5
 151 178 l 6
 151 91 161 14 252 14 c 4
 323 14 351 120 351 207 c 4
 351 260 331 378 249 378 c 4
EndSplineSet
EndChar

StartChar: c
Encoding: 99 99 3
Width: 399
VWidth: 0
Flags: W
HStem: -12 54<180.498 307.495> 379 29<178.145 260.71>
VStem: 20 78<125.806 292.089>
LayerCount: 3
Fore
SplineSet
237 408 m 0
 296 408 374 375 374 326 c 0
 374 304 358 286 338 286 c 0
 303 286 285 329 272 351 c 0
 258 374 245 379 227 379 c 0
 160 378 98 307 98 213 c 0
 98 97 184 42 263 42 c 0
 325 42 361 80 368 80 c 0
 369 80 375 76 375 72 c 0
 375 60 316 -12 220 -12 c 0
 75 -12 20 103 20 200 c 0
 20 307 102 408 237 408 c 0
EndSplineSet
Validated: 1
Layer: 2
SplineSet
237 408 m 4
 296 408 374 375 374 326 c 4
 374 304 358 286 338 286 c 4
 303 286 285 329 272 351 c 4
 258 374 245 379 227 379 c 4
 160 378 98 307 98 213 c 4
 98 97 184 42 263 42 c 4
 325 42 361 80 368 80 c 4
 369 80 375 77 375 73 c 4
 375 61 322 -12 220 -12 c 4
 75 -12 20 103 20 200 c 4
 20 307 102 408 237 408 c 4
EndSplineSet
EndChar

StartChar: d
Encoding: 100 100 4
Width: 467
VWidth: 0
Flags: W
HStem: -16 42<169.665 272.208> 371 27<161.812 267.284> 637 20G<375 377>
VStem: 20 76<112.601 276.654> 310 73<46.315 339.775 392 595.397>
LayerCount: 3
Fore
SplineSet
319 -7 m 0
 319 5 320 25 320 34 c 0
 320 37 320 40 319 40 c 0
 318 40 313 36 309 31 c 0
 292 13 246 -16 199 -16 c 0
 122 -16 20 37 20 178 c 0
 20 265 71 398 248 398 c 0
 262 398 298 394 310 392 c 1
 310 479 l 2
 310 597 308 589 271 601 c 0
 242 610 245 606 245 616 c 2
 245 628 l 2
 245 631 251 631 262 633 c 0
 327 643 374 657 376 657 c 0
 378 657 384 648 384 645 c 0
 384 456 383 591 383 172 c 0
 383 66 386 49 414 42 c 0
 418 41 435 38 437 38 c 0
 445 37 447 37 447 26 c 0
 447 17 444 15 441 15 c 0
 355 2 337 -11 327 -11 c 0
 325 -11 319 -8 319 -7 c 0
217 371 m 0
 131 371 96 295 96 215 c 0
 96 126 145 26 230 26 c 0
 305 26 310 88 310 96 c 2
 310 282 l 2
 310 330 273 371 217 371 c 0
EndSplineSet
Validated: 1
Layer: 2
SplineSet
314 -1 m 4
 314 11 317 31 317 40 c 4
 317 43 317 46 316 46 c 4
 315 46 310 42 306 37 c 4
 289 19 243 -8 196 -8 c 4
 119 -8 17 47 17 188 c 4
 17 275 68 408 245 408 c 4
 266 408 297 405 307 402 c 5
 307 442 l 6
 307 473 306 498 306 518 c 4
 305 581 307 597 276 606 c 4
 263 610 250 614 246 616 c 4
 241 619 243 636 247 637 c 4
 321 650 370 665 372 665 c 4
 374 665 383 656 383 653 c 4
 383 464 382 274 382 180 c 4
 382 74 383 55 411 48 c 4
 415 47 433.015444247 44.2480694692 435 44 c 4
 443 43 444 40 444 29 c 4
 444 24 442 18 439 18 c 4
 353 5 333 -8 323 -8 c 4
 320 -8 314 -4 314 -1 c 4
207 381 m 4
 130 381 93 306 93 225 c 4
 93 136 142 34 227 34 c 4
 302 34 307 96 307 104 c 6
 307 292 l 6
 307 342 267 381 207 381 c 4
EndSplineSet
EndChar

StartChar: e
Encoding: 101 101 5
Width: 425
VWidth: 0
Flags: W
HStem: -16 56<186.567 309.656> 252 22<115.498 307.094> 378 27<171.091 270.566>
VStem: 30 74<125.229 272.269> 311 77<264 336.904>
LayerCount: 3
Fore
SplineSet
219 378 m 0
 152 378 115 310 115 287 c 0
 115 278 117 274 131 274 c 2
 277 274 l 2
 287 274 311 276 311 297 c 0
 311 326 290 378 219 378 c 0
223 -16 m 0
 110 -16 30 81 30 198 c 0
 30 303 106 405 221 405 c 0
 333 405 388 331 388 270 c 0
 388 258 387 252 376 252 c 2
 123 252 l 2
 106 252 104 243 104 227 c 0
 104 77 205 40 272 40 c 0
 335 40 356 69 372 100 c 0
 377 110 379 111 387 108 c 0
 392 106 394 106 394 102 c 0
 394 84 337 -16 223 -16 c 0
EndSplineSet
Validated: 1
Layer: 2
SplineSet
219 378 m 4
 152 378 115 310 115 287 c 4
 115 278 117 274 131 274 c 6
 277 274 l 6
 287 274 311 276 311 297 c 4
 311 326 290 378 219 378 c 4
223 -16 m 4
 110.419921875 -16 30 81.453125 30 198 c 4
 30 303 106 405 221 405 c 4
 333 405 388 331 388 270 c 4
 388 258 387 252 376 252 c 6
 123 252 l 6
 106 252 104 243 104 227 c 4
 104 77 204 40 276 40 c 4
 343 40 362 81 372 100 c 4
 377 110 381 111 388 108 c 4
 393 106 395 103 395 100 c 4
 395 82 337 -16 223 -16 c 4
EndSplineSet
EndChar

StartChar: f
Encoding: 102 102 6
Width: 291
VWidth: 0
Flags: W
HStem: -3 24<24.0116 85.1976 176.774 235.986> 353 40<168 277> 637 45<215.822 321>
VStem: 95 73<23.9077 349.884>
LayerCount: 3
Fore
SplineSet
168 345 m 0
 168 262.333007812 168 182.666666667 168 100 c 0
 168 51 170 25 194 23 c 2
 224 21 l 2
 232 21 236 20 236 10 c 0
 236 2 234 -3 224 -3 c 0
 207 -3 150 1 123 1 c 0
 92 1 45 -3 32 -3 c 0
 28 -3 24 -2 24 8 c 0
 24 20 27 19 35 20 c 2
 51 21 l 2
 79.9494163424 22.8093385214 95 22 95 93 c 2
 95 327 l 2
 95 350 94 350 77 350 c 2
 49 350 l 2
 43 350 37 352 37 358 c 2
 37 364 l 2
 37 366 38 366 41 368 c 0
 45 370 53 375 62 380 c 0
 83 392 84 392 87 401 c 0
 108 467 110 570 180 635 c 0
 210 662 247 682 306 682 c 0
 336 682 394 672 394 630 c 0
 394 608 376 586 355 586 c 0
 307 586 286 637 249 637 c 0
 196 637 168 553 168 474 c 2
 168 410 l 2
 168 397 168 393 184 393 c 2
 265 393 l 2
 272 393 277 393 277 381 c 2
 277 363 l 2
 277 356 275 353 267 353 c 2
 177 353 l 2
 171 353 168 350 168 345 c 0
EndSplineSet
Validated: 1
EndChar

StartChar: g
Encoding: 103 103 7
Width: 442
VWidth: 0
Flags: WO
HStem: -293 59<108.67 256.89> -68 64<96.8979 293.924> 87 23<154.659 231.974> 358 40<326.913 404.5> 370 27<155.418 239.535>
VStem: 13 57<-231.5 -133.684> 31 59<-36 52.6171> 33 72<153.895 309.852> 287 74<159.831 318.6> 347 49<-180.722 -104.168>
LayerCount: 3
Fore
SplineSet
33 229 m 0xf1
 33 323 109 397 201 397 c 0xe9
 267 397 301 363 303 362 c 1
 316 373 355 398 388 398 c 0
 421 398 435 379 435 361 c 0
 435 346 425 332 407 332 c 0
 375 332 364 358 348 358 c 0
 328 358 319 346 319 346 c 1
 319 346 361 306 361 240 c 0
 361 141 285 87 195 87 c 0
 156 87 121 98 121 98 c 1
 121 98 90 82 90 37 c 0xf280
 90 -1 115 -4 176 -4 c 2
 234 -4 l 2
 309 -4 345 -9 376 -47 c 0
 389 -62 396 -90 396 -105 c 0
 396 -225 255 -293 145 -293 c 0
 73 -293 13 -263 13 -200 c 0xf440
 13 -133 91 -66 91 -66 c 1
 91 -66 31 -60 31 -12 c 0xf2
 31 35 64 71 86 90 c 0
 102 104 102 107 95 112 c 0
 66 133 33 167 33 229 c 0xf1
118 -68 m 0
 114 -68 70 -112 70 -153 c 0
 70 -206 136 -234 195 -234 c 0
 269 -234 347 -202 347 -140 c 0xe440
 347 -77 213 -74 118 -68 c 0
287 242 m 0xe980
 287 328 244 370 199 370 c 0
 136 370 105 302 105 236 c 0
 105 152 148 110 194 110 c 0
 240 110 287 154 287 242 c 0xe980
EndSplineSet
Validated: 1
Layer: 2
SplineSet
303 360 m 5xe9
 316 371 353 396 386 396 c 4
 416 396 433 378 433 359 c 4
 433 345 424 332 407 332 c 4
 375 332 364 358 348 358 c 4
 328 358 317 346 317 346 c 5
 317 346 359 306 359 240 c 4
 359 161 305 89 202 89 c 4
 157 89 124 101 121 102 c 5
 121 102 89 84 89 37 c 4xf280
 89 8 102 -4 151 -4 c 6
 224 -4 l 6
 310 -4 392 -15 392 -105 c 4
 392 -225 255 -293 145 -293 c 4
 73 -293 12 -263 12 -200 c 4xf440
 12 -133 91 -66 91 -66 c 5
 91 -66 31 -60 31 -12 c 4xf2
 31 58 107 107 107 107 c 5
 105 109 32 139 32 234 c 4
 32 329 117 396 201 396 c 4
 267 396 301 361 303 360 c 5xe9
118 -68 m 4
 116 -68 67 -109 67 -154 c 4
 67 -203 123 -235 195 -235 c 4
 269 -235 347 -202 347 -140 c 4xe440
 347 -79 213 -74 118 -68 c 4
101 236 m 4xe980
 101 153 152 109 195 109 c 4
 236 109 287 152 287 242 c 4
 287 328 243 370 198 370 c 4
 150 370 101 324 101 236 c 4xe980
EndSplineSet
EndChar

StartChar: h
Encoding: 104 104 8
Width: 452
VWidth: 0
Flags: W
HStem: -3 24<18.0051 57.7708 145.021 194.98 287.642 315.133 403.432 441.999> 359 40<188.051 289.5> 647 20G<127 129>
VStem: 64 73<22.494 341.57 352 602.785> 320 73<22.8111 329.333>
LayerCount: 3
Fore
SplineSet
29 21 m 0
 64 24 64 22 64 134 c 2
 64 486 l 2
 64 594 61 595 33 607 c 0
 14 615 12 611 12 622 c 0
 12 628 14 630 16 630 c 0
 81 648 126 667 128 667 c 0
 130 667 137 659 137 658 c 2
 137 352 l 1
 166 373 223 399 281 399 c 0
 383 399 393 303 393 236 c 2
 393 168 l 2
 393 42 396 24 423 21 c 0
 444 19 442 14 442 8 c 0
 442 1 440 -2 429 -2 c 0
 419 -2 379 1 361 1 c 0
 344 1 299 -2 294 -2 c 0
 287 -2 281 -2 281 5 c 0
 280 19 280 17 297 21 c 0
 319 26 320 34 320 93 c 2
 320 227 l 2
 320 295 311 359 230 359 c 0
 173 359 137 329 137 327 c 2
 137 116 l 2
 137 32 145 23 161 22 c 2
 174 21 l 2
 194 19 195 20 195 10 c 0
 195 0 192 -3 182 -3 c 0
 164 -3 132 1 111 1 c 0
 75 1 36 -3 29 -3 c 0
 25 -3 18 -2 18 6 c 0
 18 15 16 20 29 21 c 0
EndSplineSet
Validated: 1
Layer: 2
SplineSet
29 21 m 4
 64 23 64 22 64 134 c 6
 64 486 l 6
 64 601 63 591 31 607 c 4
 17 613 12 612 12 622 c 4
 12 626 15 630 17 630 c 4
 82 648 126 667 128 667 c 4
 130 667 137 659 137 658 c 6
 137 352 l 5
 166 373 223 399 281 399 c 4
 383 399 393 303 393 236 c 4
 393 215 393 194 393 173 c 4
 393 23 393 22 433 22 c 4
 437 22 444 22 444 8 c 4
 444 1 437 -2 426 -2 c 4
 412 -2 391 1 356 1 c 4
 327 1 300 -3 292 -3 c 4
 285 -3 281 -2 281 5 c 4
 281 15 282 18 297 21 c 4
 319 25 320 35 320 107 c 6
 320 227 l 6
 320 295 311 359 230 359 c 4
 173 359 137 329 137 327 c 6
 137 116 l 6
 137 12 148 24 174 21 c 4
 194 19 193 20 195 10 c 4
 197 0 188 -3 182 -3 c 4
 164 -3 132 1 111 1 c 4
 75 1 44 -3 29 -3 c 4
 25 -3 17 -2 18 6 c 4
 19 15 19 20 29 21 c 4
29 21 m 0
 64 23 64 22 64 134 c 2
 64 486 l 2
 64 601 63 591 31 607 c 0
 17 613 12 612 12 622 c 0
 12 626 15 630 17 630 c 0
 82 648 126 667 128 667 c 0
 130 667 137 659 137 658 c 2
 137 352 l 1
 166 373 221 399 279 399 c 0
 381 399 391 303 391 236 c 0
 391 215 391 194 391 173 c 0
 391 23 391 22 431 22 c 0
 435 22 442 22 442 8 c 0
 442 1 435 -2 424 -2 c 0
 410 -2 389 1 354 1 c 0
 325 1 298 -3 290 -3 c 0
 283 -3 279 -2 279 5 c 0
 279 15 280 18 295 21 c 0
 317 25 318 35 318 107 c 2
 318 227 l 2
 318 295 309 359 228 359 c 0
 171 359 137 329 137 327 c 2
 137 116 l 2
 137 12 148 24 174 21 c 0
 194 19 193 20 195 10 c 0
 197 0 188 -3 182 -3 c 0
 164 -3 132 1 111 1 c 0
 75 1 44 -3 29 -3 c 0
 25 -3 17 -2 18 6 c 0
 19 15 19 20 29 21 c 0
EndSplineSet
EndChar

StartChar: i
Encoding: 105 105 9
Width: 238
VWidth: 0
Flags: W
HStem: -3 24<21.0554 77.7405 171.581 217.953> 386 20G<154 156.5> 569 91<88.2207 167.134>
VStem: 80 94<577.185 652.67> 90 73<24.9444 337.996>
LayerCount: 3
Fore
SplineSet
163 136 m 2xe8
 163 21 168 20 207 20 c 0
 214 20 218 20 218 7 c 0
 218 -1 214 -3 206 -3 c 0
 191 -3 162 1 121 1 c 0
 81 1 41 -3 31 -3 c 0
 24 -3 21 0 21 11 c 0
 21 21 28 19 55 21 c 0
 88 24 90 56 90 131 c 2
 90 245 l 2
 90 307 89 326 68 338 c 2
 52 347 l 1
 44 353 43 350 43 358 c 0
 43 367 42 365 57 370 c 0
 101 384 153 406 155 406 c 0
 158 406 165 399 165 396 c 0
 163 321 163 354 163 157 c 2
 163 136 l 2xe8
125 660 m 0
 158 660 174 636 174 614 c 0
 174 592 159 569 129 569 c 0
 99 569 80 593 80 617 c 0xf0
 80 636 93 660 125 660 c 0
EndSplineSet
Validated: 1
Layer: 2
SplineSet
156 404 m 4
 161 404 168 396 168 391 c 4
 166 316 165 342 165 145 c 4
 165 12 170 26 212 18 c 4
 220 16 221 11 221 4 c 4
 221 1 219 -7 211 -7 c 4
 205 -7 158 0 124 0 c 4
 84 0 47 -5 37 -5 c 4
 30 -5 23 -2 23 7 c 4
 23 17 31 22 55 23 c 4
 94 25 95 63 95 178 c 6
 95 195 l 6
 95 329 95 325 71 338 c 4
 51 349 47 350 47 357 c 4
 47 361 46 365 60 370 c 4
 99 384 154 404 156 404 c 4
130 659 m 4
 161 659 177 637 177 615 c 4
 177 593 162 572 134 572 c 4
 106 572 87 594 87 618 c 4
 87 637 100 659 130 659 c 4
50 23 m 0
 92 28 95 46 95 197 c 0
 95 331 95 327 71 340 c 0
 51 351 47 352 47 359 c 0
 47 363 46 367 60 372 c 0
 99 386 154 406 156 406 c 0
 160 406 167 398 167 393 c 0
 167 294 165 283 165 223 c 0
 165 198 165 164 166 112 c 0
 167 15 173 32 210 17 c 0
 218 14 221 9 221 4 c 0
 221 0 219 -8 210 -8 c 0
 201 -8 157 2 122 2 c 0
 82 2 47 -4 37 -4 c 0
 29 -4 23 0 23 10 c 0
 23 18 27 20 50 23 c 0
130 661 m 0
 161 661 177 639 177 617 c 0
 177 595 162 574 134 574 c 0
 106 574 87 596 87 620 c 0
 87 639 100 661 130 661 c 0
50 23 m 0
 92 28 95 46 95 197 c 0
 95 331 95 327 71 340 c 0
 51 351 47 352 47 359 c 0
 47 363 46 367 60 372 c 0
 99 386 154 406 156 406 c 0
 160 406 167 398 167 393 c 0
 167 294 165 283 165 223 c 0
 165 198 165 164 166 112 c 0
 167 26 172 30 195 22 c 0
 206 18 222 17 222 9 c 0
 222 7 222 -8 210 -8 c 0
 201 -8 157 2 122 2 c 0
 82 2 47 -4 37 -4 c 0
 26 -4 23 0 23 10 c 0
 23 18 25 20 50 23 c 0
130 661 m 0
 161 661 177 639 177 617 c 0
 177 595 162 574 134 574 c 0
 106 574 87 596 87 620 c 0
 87 639 100 661 130 661 c 0
EndSplineSet
EndChar

StartChar: j
Encoding: 106 106 10
Width: 258
VWidth: 0
Flags: W
HStem: -282 21G<37 44.5> 395 20G<122.98 173> 569 91<73.2207 152.134>
VStem: 65 94<577.185 652.67> 110 73<-134.697 336.143>
LayerCount: 3
Fore
SplineSet
110 660 m 0xe8
 143 660 159 636 159 614 c 0
 159 592 144 569 114 569 c 0
 84 569 65 593 65 617 c 0xf0
 65 636 78 660 110 660 c 0xe8
110 88 m 2xe8
 110 260 l 2
 110 301 108 332 83 338 c 0
 45 347 43 345 43 353 c 2
 43 358 l 2
 43 362 43 363 47 364 c 0
 80 375 172 415 172 415 c 2
 174 415 183 408 183 406 c 2
 183 -20 l 2
 183 -140 122 -212 98 -235 c 0
 82 -251 47 -282 42 -282 c 0
 32 -282 23 -271 23 -262 c 0
 23 -256 46 -246 69 -216 c 0
 108 -166 110 -113 110 88 c 2xe8
EndSplineSet
Validated: 1
EndChar

StartChar: k
Encoding: 107 107 11
Width: 465
VWidth: 0
Flags: W
HStem: -3 24<16.0038 67.6873 152.605 199.962 258.035 292.985 398.68 443.682> 168 22<147.158 198.885> 372 20<252.008 282.76 384.285 432.944> 610 21<11.0007 48.0343> 641 20G<138 141>
VStem: 74 73<21.1552 168 190.062 598.165>
DStem2: 231 236 271 244 0.618872 0.785492<1.78112 128.364>
LayerCount: 3
Fore
SplineSet
16 10 m 0
 16 17 16 20 50 21 c 0
 71 21 74 22 74 182 c 0
 74 248 74 341 73 473 c 0
 72 594 69 600 16 610 c 0
 11 611 11 617 11 621 c 0
 11 627 11 630 18 631 c 0
 94 643 136 661 140 661 c 0
 142 661 147 653 147 651 c 0
 147 493 146 454 146 257 c 2
 146 203 l 2
 146 190 152 190 158 190 c 2
 163 190 l 2
 185 190 196 191 231 236 c 2
 283 302 l 2
 296 319 302 333 302 344 c 0
 302 357 297 365 283 369 c 0
 278 370 265 372 261 372 c 0
 252 373 252 375 252 384 c 0
 252 391 253 392 265 392 c 2
 421 392 l 2
 430 392 433 391 433 384 c 0
 433 375 431 372 423 372 c 0
 401 371 381 369 336 322 c 0
 310 295 285 264 271 244 c 0
 260 229 254 223 254 220 c 0
 254 217 257 213 267 200 c 0
 404 19 390 27 437 19 c 0
 443 18 453 18 453 12 c 2
 453 6 l 2
 453 1 453 -3 444 -3 c 0
 438 -3 381 1 358 1 c 0
 349 1 300 -3 266 -3 c 0
 261 -3 258 0 258 5 c 0
 258 14 258 16 263 17 c 0
 273 18 293 16 293 29 c 0
 293 46 276 64 199 163 c 0
 195 167 191 168 186 168 c 2
 159 168 l 2
 147 168 147 161 147 151 c 2
 147 67 l 2
 147 47 150 24 166 21 c 0
 187 17 200 24 200 8 c 0
 200 0 198 -3 190 -3 c 0
 185 -3 122 1 108 1 c 0
 74 1 30 -3 24 -3 c 0
 16 -3 16 5 16 10 c 0
EndSplineSet
Validated: 1
Layer: 2
SplineSet
186 168 m 6
 159 168 l 6
 147 168 147 161 147 151 c 6
 147 67 l 6
 147 47 150 24 166 21 c 4
 192 16 200 22 200 8 c 4
 200 0 195 -3 187 -3 c 4
 175 -3 122 1 108 1 c 4
 74 1 32 -3 26 -3 c 4
 18 -3 16 5 16 10 c 4
 16 20 25 20 50 21 c 4
 71 22 74 22 74 182 c 4
 74 248 74 341 73 473 c 4
 72 594 69 600 16 610 c 4
 11 611 10 617 10 621 c 4
 10 627 11 630 18 631 c 4
 94 643 136 661 140 661 c 4
 142 661 147 653 147 651 c 4
 147 493 146 454 146 257 c 6
 146 203 l 6
 146 190 152 190 158 190 c 6
 163 190 l 6
 185 190 196 191 231 236 c 6
 283 302 l 6
 302 327 309 342 309 352 c 4
 309 371 279 372 263 372 c 4
 255 372 252 375 252 384 c 4
 252 391 254 392 267 392 c 4
 400 392 405 395 421 395 c 4
 430 395 433 391 433 384 c 4
 433 370 426 377 401 368 c 4
 349 349 298 281 271 244 c 4
 260 229 254 223 254 220 c 4
 254 217 257 213 267 200 c 4
 383 46 390 27 424 21 c 4
 450 16 453 18 453 11 c 6
 453 6 l 6
 453 1 450 -3 442 -3 c 4
 424 -3 367 1 352 1 c 4
 318 1 273 -3 265 -3 c 4
 260 -3 257 0 257 5 c 4
 257 14 260 17 265 17 c 4
 272 17 293 18 293 29 c 4
 293 46 276 64 199 163 c 4
 195 167 191 168 186 168 c 6
EndSplineSet
EndChar

StartChar: l
Encoding: 108 108 12
Width: 239
VWidth: 0
Flags: W
HStem: -3 24<21.0019 74.5469 167.64 218.996>
VStem: 85 73<24.3984 613.562>
LayerCount: 3
Fore
SplineSet
32 636 m 2
 32 642 32 644 37 644 c 0
 116 650 150 657 154 657 c 0
 156 657 161 650 161 648 c 0
 159 500 158 464 158 278 c 2
 158 189 l 2
 158 14 159 26 202 21 c 0
 218 19 219 20 219 8 c 0
 219 -1 213 -3 206 -3 c 0
 194 -3 149 1 121 1 c 0
 96 1 36 -3 33 -3 c 0
 22 -3 21 0 21 8 c 0
 21 18 20 19 40 21 c 2
 52 22 l 2
 84 25 85 44 85 145 c 2
 85 527 l 2
 85 613 79 607 36 625 c 0
 32 627 32 628 32 633 c 2
 32 636 l 2
EndSplineSet
Validated: 1
EndChar

StartChar: m
Encoding: 109 109 13
Width: 232
VWidth: 0
Flags: W
HStem: 146 80<80.393 151.607>
VStem: 76 80<150.393 221.607>
LayerCount: 3
Fore
SplineSet
76 186 m 4
 76 208 94 226 116 226 c 4
 138 226 156 208 156 186 c 4
 156 164 138 146 116 146 c 4
 94 146 76 164 76 186 c 4
EndSplineSet
Validated: 1
EndChar

StartChar: n
Encoding: 110 110 14
Width: 465
VWidth: 0
Flags: W
HStem: -3 24<20.0015 60.6485 145.484 199.996 267.779 318.14 403.149 438.204> 353 48<207.459 299.036>
VStem: 67 73<21.9756 326.507> 323 73<23.1456 328.694>
LayerCount: 3
Fore
SplineSet
364 1 m 0
 327 1 290 -3 280 -3 c 0
 271 -3 264 -3 265 9 c 0
 266 20 268 20 278 21 c 0
 321 25 323 18 323 89 c 2
 323 178 l 2
 323 296 320 353 243 353 c 0
 195 353 140 315 140 309 c 2
 140 104 l 2
 140 26 140 21 180 21 c 0
 202 21 200 15 200 7 c 0
 200 -2 194 -3 188 -3 c 0
 176 -3 122 1 107 1 c 0
 77 1 39 -3 31 -3 c 0
 22 -3 20 -1 20 8 c 0
 20 18 19 19 40 21 c 0
 50 22 67 20 67 72 c 2
 67 288 l 2
 67 321 65 330 36 337 c 2
 24 340 l 2
 17 342 16 342 16 352 c 0
 16 358 16 360 21 361 c 0
 81 375 129 402 133 402 c 0
 134 402 141 394 141 393 c 0
 140 374 140 334 140 334 c 1
 140 334 212 401 290 401 c 0
 389 401 396 330 396 218 c 2
 396 77 l 2
 396 63 396 24 418 22 c 2
 428 21 l 2
 439 20 444 17 444 13 c 2
 444 7 l 2
 444 -1 442 -3 423 -3 c 0
 419 -3 382 1 364 1 c 0
EndSplineSet
Validated: 1
Layer: 2
SplineSet
47 288 m 2
 47 321 45 330 16 337 c 2
 4 340 l 2
 -3 342 -4 342 -4 352 c 0
 -4 358 -4 360 1 361 c 0
 61 375 109 402 113 402 c 0
 114 402 121 394 121 393 c 0
 120 374 120 334 120 334 c 1
 120 334 192 401 270 401 c 0
 369 401 376 330 376 218 c 2
 376 77 l 2
 376 30 380 23 410 21 c 0
 428 20 428 20 428 7 c 0
 428 0 423 -3 417 -3 c 0
 413 -3 378 1 344 1 c 0
 307 1 270 -3 260 -3 c 0
 251 -3 244 -3 245 9 c 0
 246 20 248 20 258 21 c 0
 301 25 303 18 303 89 c 2
 303 178 l 2
 303 296 300 353 223 353 c 0
 175 353 120 315 120 309 c 2
 120 104 l 2
 120 26 121 21 160 21 c 0
 182 21 180 15 180 7 c 0
 180 -2 174 -3 168 -3 c 0
 156 -3 102 1 87 1 c 0
 58 1 14 -3 8 -3 c 0
 0 -3 -3 2 -2 8 c 0
 -1 20 1 18 20 21 c 0
 43 25 47 33 47 72 c 2
 47 288 l 2
607 1 m 0
 577 1 539 -3 531 -3 c 0
 522 -3 520 -1 520 8 c 0
 520 18 519 19 540 21 c 0
 550 22 567 20 567 72 c 2
 567 288 l 2
 567 321 565 330 536 337 c 2
 524 340 l 2
 517 342 516 342 516 352 c 0
 516 358 516 360 521 361 c 0
 581 375 629 402 633 402 c 0
 634 402 641 394 641 393 c 0
 640 374 640 334 640 334 c 1
 640 334 712 401 790 401 c 0
 889 401 896 330 896 218 c 2
 896 77 l 6
 896 37 908 23 918 22 c 6
 928 21 l 6
 939 20 944 17 944 13 c 6
 944 7 l 6
 944 1 939 -3 933 -3 c 4
 929 -3 882 1 864 1 c 4
 801 1 794 -3 777 -3 c 0
 770 -3 766 -2 766 9 c 0
 766 21 771 20 779 21 c 0
 800 23 814 24 819 35 c 0
 823 46 823 65 823 89 c 2
 823 178 l 2
 823 296 820 353 743 353 c 0
 695 353 640 315 640 309 c 2
 640 104 l 2
 640 33 641 24 670 22 c 2
 680 21 l 2
 703 19 700 18 700 7 c 0
 700 -2 694 -3 688 -3 c 0
 676 -3 622 1 607 1 c 0
278 21 m 0
 321 25 323 18 323 89 c 2
 323 178 l 2
 323 296 320 353 243 353 c 0
 195 353 140 315 140 309 c 2
 140 104 l 2
 140 26 141 21 180 21 c 0
 202 21 200 15 200 7 c 0
 200 -2 194 -3 188 -3 c 0
 176 -3 122 1 107 1 c 0
 78 1 34 -3 28 -3 c 0
 20 -3 17 2 18 8 c 0
 19 20 21 18 40 21 c 0
 63 25 67 33 67 72 c 2
 67 287 l 2
 67 311 67 333 35 338 c 0
 30 339 27 340 24 340 c 0
 17 341 16 344 16 352 c 0
 16 358 16 360 21 361 c 0
 81 375 129 402 133 402 c 0
 134 402 141 394 141 393 c 0
 140 374 140 334 140 334 c 1
 140 334 212 401 290 401 c 0
 389 401 396 330 396 218 c 2
 396 77 l 2
 396 30 400 23 430 21 c 0
 448 20 448 20 448 7 c 0
 448 0 443 -3 437 -3 c 0
 433 -3 398 1 364 1 c 0
 327 1 290 -3 280 -3 c 0
 271 -3 264 -3 265 9 c 0
 266 20 268 20 278 21 c 0
EndSplineSet
EndChar

StartChar: o
Encoding: 111 111 15
Width: 450
VWidth: 0
Flags: W
HStem: -15 25<180.295 276.512> 376 30<176.411 275.333>
VStem: 20 84<100.083 287.852> 349 81<104.232 289.037>
LayerCount: 3
Fore
SplineSet
430 195 m 0
 430 90 351 -15 220 -15 c 0
 98 -15 20 89 20 195 c 0
 20 304 105 406 233 406 c 0
 352 406 430 302 430 195 c 0
226 10 m 0
 312 10 349 95 349 181 c 2
 349 189 l 1
 347 282 303 376 227 376 c 0
 146 376 104 279 104 190 c 0
 104 100 146 10 226 10 c 0
EndSplineSet
Validated: 1
Layer: 2
SplineSet
430 195 m 4
 430 90 351 -15 220 -15 c 4
 98 -15 20 89 20 195 c 4
 20 304 105 406 233 406 c 4
 352 406 430 302 430 195 c 4
226 10 m 4
 312 10 349 95 349 181 c 6
 349 189 l 5
 347 282 303 376 227 376 c 4
 146 376 104 279 104 190 c 4
 104 100 146 10 226 10 c 4
220 -15 m 0
 96 -15 20 90 20 195 c 0
 20 301 102 406 233 406 c 0
 354 406 430 301 430 195 c 0
 430 90 350 -15 220 -15 c 0
224 10 m 0
 310 10 349 97 349 186 c 0
 349 280 306 376 229 376 c 0
 149 376 104 279 104 185 c 0
 104 96 144 10 224 10 c 0
EndSplineSet
EndChar

StartChar: p
Encoding: 112 112 16
Width: 469
VWidth: 0
Flags: W
HStem: -272 24<17.1925 67.6524 154.3 219.982> -4 26<205.571 293.448> 365 41<201.431 300.144>
VStem: 76 73<-246.799 11 63.7979 354.183> 361 81<103.928 295.815>
LayerCount: 3
Fore
SplineSet
146 340 m 1
 154 346 195 406 277 406 c 0
 382 406 442 304 442 202 c 0
 442 99 378 -4 249 -4 c 0
 188 -4 149 11 149 11 c 1
 149 -184 l 2
 149 -247 154 -248 193 -248 c 2
 199 -248 l 2
 214 -248 220 -250 220 -259 c 0
 220 -271 214 -272 203 -272 c 0
 185 -272 132 -270 114 -270 c 0
 68 -270 33 -274 26 -274 c 0
 20 -274 17 -269 17 -263 c 0
 17 -257 19 -250 26 -250 c 0
 58 -249 69 -250 73 -213 c 0
 75 -189 76 81 76 209 c 2
 76 324 l 2
 76 344 63 353 44 357 c 0
 27 360 26 360 26 368 c 0
 26 371 26 374 30 375 c 0
 109 394 131 409 139 409 c 0
 141 409 148 401 148 400 c 0
 147 378 146 340 146 340 c 1
249 22 m 0
 294 22 361 61 361 196 c 0
 361 312 297 365 244 365 c 0
 183 365 149 322 149 318 c 2
 149 117 l 2
 149 73 199 22 249 22 c 0
EndSplineSet
Validated: 1
EndChar

StartChar: q
Encoding: 113 113 17
Width: 475
VWidth: 0
Flags: W
HStem: -272 24<242.955 308.666 400.998 459.968> -7 33<188.875 303.285> 382 30<164.585 266.413>
VStem: 23 87<112.716 300.096> 321 73<-245.239 17 34.0505 342.156>
LayerCount: 3
Fore
SplineSet
23 206 m 0
 23 329 121 412 220 412 c 0
 294 412 359 383 359 383 c 1
 386 407 386 407 390 407 c 0
 396 407 400 406 400 399 c 0
 399 350 394 390 394 -125 c 2
 394 -178 l 2
 394 -243 397 -248 446 -248 c 0
 457 -248 460 -251 460 -259 c 0
 460 -275 449 -272 441 -272 c 0
 420 -272 384 -271 359 -271 c 0
 336 -271 291 -274 246 -274 c 0
 242 -274 239 -273 239 -265 c 2
 239 -260 l 2
 239 -245 241 -251 296 -246 c 0
 314 -244 321 -225 321 -46 c 2
 321 17 l 1
 321 17 276 -7 210 -7 c 0
 60 -7 23 137 23 206 c 0
257 26 m 0
 319 26 321 59 321 72 c 2
 321 289 l 2
 321 343 260 382 215 382 c 0
 150 381 110 329 110 243 c 0
 110 152 130 26 257 26 c 0
EndSplineSet
Validated: 1
Layer: 2
SplineSet
222 415 m 4
 297 415 359 383 359 383 c 5
 359 383 375 403 382 411 c 4
 384 413 388 414 390 414 c 4
 396 414 401 409 401 402 c 4
 401 388 400 391 400 358 c 4
 399 68 399 165 399 -125 c 4
 399 -158 400 -192 401 -228 c 4
 401 -236 407 -241 417 -241 c 4
 426 -241 441 -242 449 -242 c 4
 460 -242 463 -248 463 -258 c 4
 463 -266 459 -275 443 -275 c 4
 422 -275 384 -273 359 -273 c 4
 328 -273 283 -280 257 -280 c 4
 247 -280 239 -276 239 -263 c 4
 239 -257 239 -247 255 -247 c 4
 263 -247 283 -247 291 -246 c 4
 302 -245 315 -233 316 -213 c 4
 320 -103 321 -66 321 -46 c 6
 321 -10 l 6
 321 2 320 14 315 12 c 4
 296 4 252 -6 210 -6 c 4
 80 -6 21 101 21 201 c 4
 21 306 86 414 222 415 c 4
257 26 m 4
 319 26 321 59 321 72 c 4
 321 247 322 269 322 291 c 4
 322 345 260 388 215 388 c 4
 150 387 106 329 106 243 c 4
 106 152 130 26 257 26 c 4
EndSplineSet
EndChar

StartChar: r
Encoding: 114 114 18
Width: 332
VWidth: 0
Flags: W
HStem: -3 24<10.003 73.1094 169.701 240.996> 349 59<212.241 289.5>
VStem: 86 73<26.5094 323 339 349.843>
LayerCount: 3
Fore
SplineSet
291 311 m 0
 254 311 251 349 222 349 c 0
 194 349 160 299 160 291 c 0
 159 217 159 165 159 128 c 0
 159 26 164 21 212 21 c 2
 227 21 l 2
 235 21 241 19 241 13 c 0
 241 8 243 -3 232 -3 c 0
 205 -3 158 1 116 1 c 0
 84 1 30 -3 23 -3 c 0
 12 -3 10 2 10 9 c 0
 10 20 14 21 35 21 c 0
 85 22 86 44 86 117 c 2
 86 314 l 2
 86 351 50 353 42 360 c 0
 40 361 40 375 42 375 c 0
 115 391 146 411 151 411 c 0
 153 411 161 405 161 402 c 0
 160 385 159 339 159 339 c 1
 159 339 217 408 271 408 c 0
 308 408 327 382 327 355 c 0
 327 334 313 311 291 311 c 0
EndSplineSet
Validated: 1
Layer: 2
SplineSet
271 408 m 4x70
 308 408 327 382 327 355 c 4
 327 334 313 311 291 311 c 4
 270 311 258 324 249 335 c 4
 246 339 236 349 222 349 c 4
 194 349 158 299 158 291 c 4
 157 217 157 165 157 128 c 4
 157 37 160 34 178 28 c 4
 212 17 242 22 242 7 c 4
 242 2 240 -6 232 -6 c 4xb0
 205 -6 158 3 116 3 c 4
 84 3 31 -2 24 -2 c 4
 13 -2 10 2 10 9 c 4
 10 18 14 21 35 21 c 4
 45 21 58 23 62 26 c 4
 80 38 83 37 84 109 c 4
 86 237 86 245 86 267 c 6
 86 311 l 6
 86 340 66 344 42 360 c 4
 37 363 38 375 44 376 c 4
 122 391 146 411 151 411 c 4
 153 411 161 405 161 402 c 4
 160 385 159 339 159 339 c 5
 159 339 217 408 271 408 c 4x70
EndSplineSet
EndChar

StartChar: s
Encoding: 115 115 19
Width: 350
VWidth: 0
Flags: W
HStem: -15 26<148.526 228.371> 379 23<143.393 218.617>
VStem: 52 30<85.8477 134.907> 64 60<273.144 358.77> 253 61<33.1125 122.119>
LayerCount: 3
Fore
SplineSet
264 390 m 0xd8
 266 390 285 397 290 397 c 0
 298 397 301 390 301 379 c 0
 301 370 300 357 300 346 c 0
 300 320 306 295 306 286 c 0
 306 280 302 278 294 277 c 0
 281 275 282 280 280 283 c 0
 268 299 248 379 176 379 c 0
 148 379 124 360 124 319 c 0xd8
 124 273 167 256 211 231 c 0
 262 202 314 177 314 103 c 0
 314 15 239 -15 196 -15 c 0
 154 -15 138 -4 114 -4 c 0
 104 -4 76 -10 72 -10 c 0
 60 -10 58 -5 58 3 c 0
 58 11 61 22 61 37 c 0
 61 76 52 104 52 119 c 0
 52 132 55 133 65 135 c 0
 73 137 79 131 82 121 c 0xe8
 109 46 147 11 194 11 c 0
 226 11 253 40 253 75 c 0
 253 168 64 165 64 291 c 0
 64 359 114 402 183 402 c 0
 232 402 256 390 264 390 c 0xd8
EndSplineSet
Validated: 1
Layer: 2
SplineSet
119 319 m 4xac
 119 222 310 242 310 103 c 4
 310 15 245 -16 196 -16 c 4
 154 -16 137 -5 102 -5 c 4
 92 -5 74 -10 70 -10 c 4
 58 -10 56 -5 56 3 c 4
 56 11 59 22 59 37 c 4
 59 76 50 104 50 119 c 4xb4
 50 132 53 133 63 135 c 4xac
 71 137 77 131 80 121 c 4xb4
 101 62 126 11 196 11 c 4
 235 11 253 47 253 79 c 4
 252 169 63 170 63 291 c 4
 63 359 106 404 183 404 c 4xac
 240 404 255 391 262 391 c 4
 265 391 282 397 287 397 c 4xcc
 295 397 298 390 298 379 c 4
 298 370 297 357 297 346 c 4
 297 320 303 295 303 286 c 4
 303 280 300 278 292 277 c 4
 279 275 279 280 277 283 c 4
 265 299 242 380 176 380 c 4
 145 380 119 360 119 319 c 4xac
EndSplineSet
EndChar

StartChar: t
Encoding: 116 116 20
Width: 312
VWidth: 0
Flags: W
HStem: -10 42<166.389 267.77> 349 43<151.006 292>
VStem: 78 73<45.6699 346.875>
LayerCount: 3
Fore
SplineSet
151 138 m 2
 151 48 170 32 219 32 c 0
 249 32 268 41 280 44 c 0
 287 46 292 35 292 28 c 0
 292 12 205 -10 185 -10 c 0
 84 -10 78 54 78 138 c 2
 78 320 l 2
 78 336 78 347 60 347 c 0
 51 347 40 347 37 348 c 0
 32 349 30 356 30 361 c 0
 30 372 52 376 120 454 c 0
 127 461 133 467 139 467 c 0
 150 467 151 456 151 451 c 0
 151 431 150 412 150 402 c 0
 150 394 150 392 165 392 c 2
 279 392 l 2
 286 392 292 392 292 373 c 2
 292 367 l 2
 292 352 291 349 276 349 c 2
 164 349 l 2
 151 349 151 349 151 332 c 2
 151 138 l 2
EndSplineSet
Validated: 1
EndChar

StartChar: u
Encoding: 117 117 21
Width: 492
VWidth: 0
Flags: HMW
HStem: -11 40<195.651 289.629> -9 21G<162.5 256.5 345.5 379> 373 24<29.0037 83.209 252.047 325.102>
VStem: 90 73<64.5931 370.265> 340 69<39.7619 49 50.0015 366.516>
LayerCount: 3
Fore
SplineSet
340 49 m 1x78
 340 49 291 -11 222 -11 c 0xb8
 103 -11 90 80 90 181 c 2
 90 335 l 2
 90 365 77 370 53 373 c 0
 34 375 29 374 29 385 c 0
 29 390 30 397 34 397 c 0
 57 397 76 395 100 395 c 0
 116 395 139 397 156 397 c 0
 160 397 166 391 166 381 c 0
 166 329 163 259 163 199 c 0
 163 141 163 101 179 71 c 0
 194 43 216 29 251 29 c 0xb8
 294 29 340 59 340 77 c 2
 340 309 l 2
 340 351 340 370 283 373 c 0
 250 375 249 373 249 384 c 2
 249 387 l 2
 249 395 252 397 257 397 c 0
 279 397 312 395 335 395 c 0
 361 395 376 397 402 397 c 0
 407 397 412 395 412 379 c 0
 412 355 409 302 409 207 c 2
 409 144 l 2
 409 28 409 46 455 35 c 0
 463 33 466 34 466 27 c 2
 466 21 l 2
 466 17 465 15 457 14 c 0
 443 11 412 9 350 -9 c 1
 345 -9 341 -4 341 -3 c 2
 340 49 l 1x78
EndSplineSet
Validated: 1
Layer: 2
SplineSet
338 50 m 5x78
 338 50 291 -12 222 -12 c 4
 103 -12 90 79 90 180 c 6
 90 334 l 6
 90 364 78 370 57 372 c 4
 32 374 29 373 29 384 c 4
 29 389 30 396 34 396 c 6
 154 396 l 6
 159 396 166 392 166 376 c 4
 166 324 163 258 163 198 c 4
 163 140 163 100 179 70 c 4
 194 42 216 28 251 28 c 4
 294 28 338 60 338 78 c 6
 338 308 l 6
 338 350 337 369 291 372 c 4
 249 375 247 372 247 383 c 6
 247 386 l 6
 247 394 250 396 255 396 c 6
 400 396 l 6
 405 396 410 394 410 378 c 4
 410 354 407 301 407 206 c 6
 407 145 l 6
 407 29 407 47 453 36 c 4
 461 34 464 35 464 28 c 4xb8
 464 26 464 24 464 22 c 4
 464 18 463 16 455 15 c 4
 441 12 410 10 348 -8 c 5
 343 -8 339 -3 339 -2 c 6
 338 50 l 5x78
EndSplineSet
EndChar

StartChar: v
Encoding: 118 118 22
Width: 452
VWidth: 0
Flags: W
HStem: -6 21G<206 218> 373 24<13.1387 52.8447 148.969 200.923 264.305 326.209 384.251 435.808>
DStem2: 238 94 233 16 0.38933 0.921098<0 264.802>
LayerCount: 3
Fore
SplineSet
192 376 m 0
 150 376 148 363 148 354 c 2
 148 352 l 2
 148 310 226 130 238 94 c 1
 284 202 l 2
 316 278 331 326 331 343 c 0
 331 362 322 370 299 373 c 0
 285 375 268 376 267 377 c 0
 260 382 261 397 270 397 c 0
 284 397 336 393 354 393 c 0
 389 393 413 397 427 397 c 0
 434 397 436 393 436 391 c 2
 436 389 l 2
 436 373 430 376 409 373 c 0
 374 368 372 347 315 210 c 2
 233 16 l 2
 226 -1 222 -6 214 -6 c 2
 210 -6 l 2
 202 -6 199 -2 195 8 c 2
 92 276 l 2
 67 341 59 369 32 373 c 0
 17 376 13 373 13 389 c 0
 13 394 16 397 21 397 c 0
 28 397 96 393 108 393 c 0
 128 393 164 397 194 397 c 0
 198 397 201 392 201 387 c 0
 201 382 200 376 192 376 c 0
EndSplineSet
Validated: 1
Layer: 2
SplineSet
192 375 m 4
 150 375 148 363 148 354 c 6
 148 352 l 6
 148 310 226 130 238 94 c 5
 284 202 l 6
 316 278 331 326 331 343 c 4
 331 362 322 369 299 372 c 4
 285 374 268 375 267 376 c 4
 260 381 260 396 269 396 c 6
 428 396 l 6
 435 396 436 392 436 390 c 6
 436 388 l 6
 436 372 430 375 409 372 c 4
 374 367 372 347 315 210 c 6
 233 16 l 6
 226 -1 222 -6 214 -6 c 6
 210 -6 l 6
 202 -6 199 -2 195 8 c 6
 92 276 l 6
 68 338 62 353 51 364 c 4
 45 370 39 371 32 372 c 4
 17 375 13 372 13 388 c 4
 13 393 16 396 21 396 c 6
 194 396 l 6
 198 396 201 391 201 386 c 4
 201 381 200 375 192 375 c 4
EndSplineSet
EndChar

StartChar: w
Encoding: 119 119 23
Width: 714
VWidth: 0
Flags: W
HStem: -6 21G<227 240 448 462.5> 373 24<15.1064 58.1917 154.089 207.98 271.054 318.008 401.639 457.964 536.037 589.239 643.858 687.952>
DStem2: 260 84 257 16 0.442247 0.896893<0 179.631> 484 91 486 28 0.410781 0.911734<0 279.83>
LayerCount: 3
Fore
SplineSet
457 -6 m 0
 439 -6 438 0 430 26 c 2
 364 233 l 1
 257 16 l 2
 247 -5 246 -6 234 -6 c 0
 220 -6 218 -1 208 22 c 2
 92 297 l 2
 66 359 58 370 33 373 c 0
 18 375 15 373 15 389 c 0
 15 394 18 397 23 397 c 0
 30 397 86 393 104 393 c 0
 130 393 188 397 201 397 c 0
 205 397 208 392 208 387 c 0
 208 382 208 373 200 373 c 0
 158 373 154 368 154 359 c 0
 154 346 260 84 260 84 c 1
 352 267 l 1
 326 346 l 2
 316 375 299 372 290 373 c 0
 272 375 271 373 271 389 c 0
 271 394 274 397 279 397 c 0
 291 397 332 393 358 393 c 0
 386 393 421 397 451 397 c 0
 457 397 458 392 458 387 c 0
 458 374 455 373 446 373 c 2
 429 373 l 2
 412 373 401 370 401 356 c 0
 401 327 470 132 484 91 c 1
 535 202 l 2
 571 281 592 335 592 350 c 0
 592 363 584 371 563 373 c 0
 559 373 550 374 546 374 c 0
 539 374 536 375 536 387 c 0
 536 392 538 397 542 397 c 0
 567 397 593 393 618 393 c 0
 638 393 658 397 678 397 c 0
 688 397 688 390 688 389 c 2
 688 387 l 2
 688 373 684 375 670 373 c 0
 634 368 629 346 568 210 c 2
 486 28 l 2
 472 -4 468 -6 457 -6 c 0
EndSplineSet
Validated: 1
Layer: 2
SplineSet
457 -6 m 4
 439 -6 438 0 430 26 c 6
 364 233 l 5
 257 16 l 6
 247 -5 246 -6 234 -6 c 4
 220 -6 218 -1 208 22 c 6
 92 297 l 6
 66 359 59 372 33 372 c 4
 18 372 15 372 15 388 c 4
 15 393 18 396 23 396 c 6
 201 396 l 6
 205 396 208 391 208 386 c 4
 208 381 208 372 200 372 c 4
 158 372 154 368 154 359 c 4
 154 346 260 84 260 84 c 5
 352 267 l 5
 326 346 l 6
 318 370 302 372 290 372 c 4
 272 372 271 372 271 388 c 4
 271 393 274 396 279 396 c 6
 451 396 l 6
 457 396 458 391 458 386 c 4
 458 373 455 372 446 372 c 6
 429 372 l 6
 412 372 401 370 401 356 c 4
 401 327 470 132 484 91 c 5
 535 202 l 6
 571 281 592 335 592 350 c 4
 592 363 584 370 563 372 c 4
 559 372 550 373 546 373 c 4
 539 373 536 374 536 386 c 4
 536 391 538 396 542 396 c 6
 678 396 l 6
 688 396 688 389 688 388 c 6
 688 386 l 6
 688 372 684 374 670 372 c 4
 634 367 629 346 568 210 c 6
 486 28 l 6
 472 -4 468 -6 457 -6 c 4
EndSplineSet
EndChar

StartChar: x
Encoding: 120 120 24
Width: 456
VWidth: 0
Flags: W
HStem: -3 24<21.0142 69.5 124.74 171.931 240.025 279.948 375.5 431.965> 373 24<26.0044 82.0034 180.453 216.948 261.032 306.298 365.256 419.968>
DStem2: 216 274 105 330 0.541764 -0.840531<-84.9952 43.859 85.6027 235.819> 126 100 182 132 0.623143 0.782108<-45.9141 103.499 176.159 301.176>
LayerCount: 3
Fore
SplineSet
217 386 m 0
 217 376 209 375 200 373 c 0
 190 371 179 369 179 352 c 0
 179 337 200 302 216 274 c 2
 238 236 l 1
 270 283 l 2
 280 298 307 334 307 355 c 0
 307 369 300 374 270 376 c 0
 265 376 261 378 261 386 c 0
 261 397 266 397 269 397 c 0
 281 397 329 393 340 393 c 0
 369 393 400 397 410 397 c 0
 415 397 420 396 420 388 c 2
 420 386 l 2
 420 377 417 378 391 373 c 0
 349 365 322 313 278 250 c 1
 252 215 l 1
 266 193 274 183 278 176 c 2
 352 63 l 2
 369 36 381 23 402 21 c 0
 420 20 432 19 432 10 c 0
 432 -3 425 -3 421 -3 c 0
 405 -3 357 1 330 1 c 0
 312 1 259 -3 253 -3 c 0
 238 -3 240 4 240 9 c 0
 240 16 242 18 250 19 c 0
 262 21 280 20 280 34 c 0
 280 48 253 93 233 126 c 2
 208 167 l 1
 182 132 l 2
 145 81 124 56 124 38 c 0
 124 25 134 21 156 21 c 0
 167 21 172 16 172 10 c 0
 172 4 166 -3 160 -3 c 0
 144 -3 100 1 84 1 c 0
 64 1 34 -3 29 -3 c 0
 24 -3 21 3 21 8 c 0
 21 15 22 21 34 21 c 0
 63 22 66 22 126 100 c 2
 172 160 l 1
 195 187 l 1
 155 249 l 1
 105 330 l 2
 83 367 75 371 46 373 c 0
 32 374 26 372 26 385 c 0
 26 391 27 397 34 397 c 0
 47 397 112 393 126 393 c 0
 154 393 178 397 205 397 c 0
 212 397 217 395 217 386 c 0
EndSplineSet
Validated: 1
Layer: 2
SplineSet
252 215 m 5
 266 193 274 183 278 176 c 6
 352 63 l 6
 369 36 381.048495415 22.6116541988 402 21 c 4
 420.048495415 19.6116541988 432 19 432 10 c 4
 432 -3 425 -3 421 -3 c 4
 405 -3 357 1 330 1 c 4
 312 1 259 -3 253 -3 c 4
 238 -3 240 4 240 9 c 4
 240 16 242 18 250 19 c 4
 262 21 280 20 280 34 c 4
 280 48 253 93 233 126 c 6
 208 167 l 5
 182 130 l 6
 145 79 124 56 124 38 c 4
 124 25 134 22 156 21 c 4
 167 21 172 17 171 9 c 4
 170 3 169 -3 160 -3 c 4
 144 -3 100 1 84 1 c 4
 64 1 34 -3 29 -3 c 4
 24 -3 21 3 21 8 c 4
 21 15 22 21 34 21 c 4
 63 22 66 22 126 100 c 6
 172 160 l 5
 195 187 l 5
 155 249 l 6
 133 283 109 327 86 359 c 4
 77 371 67 372 46 372 c 4
 32 372 26 371 26 384 c 4
 26 390 27 396 34 396 c 6
 208 396 l 6
 215 396 217 394 217 385 c 4
 217 376 212 377 201 375 c 4
 191 373 179 371 179 354 c 4
 179 339 200 302 216 274 c 6
 238 236 l 5
 269 283 l 6
 279 298 306 336 306 357 c 4
 306 371 297 373 267 375 c 4
 262 375 260 377 260 385 c 4
 260 396 263 396 266 396 c 6
 409 396 l 6
 414 396 419 395 419 387 c 6
 419 385 l 6
 419 376 416 377 390 372 c 4
 348 364 321 312 277 249 c 5
 252 215 l 5
EndSplineSet
EndChar

StartChar: y
Encoding: 121 121 25
Width: 510
VWidth: 0
Flags: W
HStem: -286 77<30.5892 103.013> 373 24<9.17813 50.2741 149.196 204.923 295.181 354.734 432.336 478.366>
DStem2: 131 -146 139 -204 0.444225 0.895915<-73.9483 150.719 241.035 437.253>
LayerCount: 3
Fore
SplineSet
58 -286 m 0
 20 -286 3 -262 3 -238 c 0
 3 -215 19 -192 49 -192 c 0
 74 -192 80 -209 88 -209 c 0
 94 -209 106 -198 131 -146 c 2
 196 -10 l 1
 89 276 l 2
 53 372 46 373 23 373 c 0
 14 373 9 374 9 389 c 0
 9 394 14 397 19 397 c 0
 33 397 89 393 101 393 c 0
 121 393 168 397 198 397 c 0
 202 397 205 392 205 387 c 0
 205 382 204 373 196 373 c 2
 190 373 l 2
 159 373 146 368 146 348 c 0
 146 322 184 225 242 68 c 1
 302 193 361 312 361 343 c 0
 361 362 352 371 307 373 c 0
 296 373 295 376 295 380 c 0
 295 394 298 397 305 397 c 0
 315 397 367 393 392 393 c 0
 426 393 455 397 469 397 c 0
 480 397 482 392 482 389 c 2
 482 382 l 2
 482 375 477 374 471 373 c 0
 429 368 418 359 377 276 c 2
 139 -204 l 2
 113 -256 96 -286 58 -286 c 0
EndSplineSet
Validated: 1
Layer: 2
SplineSet
196 0 m 1
 92 276 l 2
 69 338 62 353 51 364 c 0
 45 370 39 371 32 372 c 0
 17 375 13 372 13 388 c 0
 13 393 16 396 21 396 c 2
 194 396 l 2
 198 396 201 391 201 386 c 0
 201 381 200 375 192 375 c 0
 150 375 148 363 148 354 c 2
 148 352 l 2
 148 310 229 114 241 78 c 1
 308 205 l 1
 354 274 371 326 371 343 c 0
 371 362 362 369 339 372 c 0
 325 374 308 375 307 376 c 0
 300 381 300 396 309 396 c 2
 468 396 l 2
 475 396 476 392 476 390 c 2
 476 388 l 2
 476 372 470 375 449 372 c 0
 414 367 410 344 345 212 c 2
EndSplineSet
EndChar

StartChar: z
Encoding: 122 122 26
Width: 232
VWidth: 0
Flags: W
HStem: 146 80<80.393 151.607>
VStem: 76 80<150.393 221.607>
LayerCount: 3
Fore
SplineSet
76 186 m 4
 76 208 94 226 116 226 c 4
 138 226 156 208 156 186 c 4
 156 164 138 146 116 146 c 4
 94 146 76 164 76 186 c 4
EndSplineSet
Validated: 1
EndChar

StartChar: A
Encoding: 65 65 27
Width: 725
VWidth: 0
Flags: W
HStem: -5 31<26.0266 97.3269 147.287 261.886 414.004 503.627 612.1 690.991> 240 36<222 419>
DStem2: 116 79 208 240 0.348419 0.937339<-10.4014 182.966 221.588 507.288> 373 644 321 544 0.364338 -0.931267<74.1811 359.466 397.728 604.362>
LayerCount: 3
Fore
SplineSet
321 544 m 1
 222 276 l 1
 419 276 l 1
 321 544 l 1
596 74 m 2
 611 35 616 27 663 27 c 2
 668 27 l 2
 688 27 691 26 691 12 c 0
 691 2 691 -5 672 -5 c 0
 651 -5 606 1 554 1 c 0
 516 1 434 -5 429 -5 c 0
 420 -5 414 -2 414 10 c 0
 414 23 417 26 428 27 c 0
 491 30 504 25 504 46 c 0
 504 52 504 60 432 240 c 1
 208 240 l 1
 163 120 147 85 146 52 c 0
 146 26 158 26 226 26 c 2
 234 26 l 2
 250 26 262 23 262 13 c 0
 262 -5 252 -5 246 -5 c 0
 229 -5 146 1 122 1 c 0
 115 1 55 -5 40 -5 c 0
 30 -5 26 -4 26 12 c 0
 26 22 31 25 44 26 c 0
 87 28 92 20 116 79 c 0
 194 275 285 528 321 622 c 0
 331 648 329 650 345 650 c 2
 355 650 l 2
 361 650 371 649 373 644 c 2
 596 74 l 2
EndSplineSet
Validated: 1
EndChar

StartChar: B
Encoding: 66 66 28
Width: 558
VWidth: 0
Flags: W
HStem: 0 31<32.0045 107.327 216.698 365.875> 333 26<212 316.701> 624 31<36.0374 109.352> 631 29<215.305 339.47>
VStem: 112 100<32.325 333 359 622.822> 408 96<434.629 574.589> 435 103<94.6035 250.893>
LayerCount: 3
Fore
SplineSet
138 653 m 0xea
 194 653 200 660 313 660 c 0
 365 660 504 641 504 506 c 0xdc
 504 379 342 350 342 350 c 1
 342 350 538 336 538 166 c 0
 538 19 390 0 278 0 c 0
 223 0 162 1 160 1 c 0
 97 1 63 -5 46 -5 c 0
 37 -5 33 -3 33 2 c 0
 32 10 32 13 32 16 c 0
 32 26 38 24 78 26 c 0
 96 27 112 29 112 85 c 2
 112 575 l 2
 112 622 109 624 64 624 c 2
 54 624 l 2
 39 624 36 628 36 637 c 0
 36 642 36 655 47 655 c 0
 78 654 120 653 138 653 c 0xea
408 502 m 0
 408 574 353 631 281 631 c 2
 259 631 l 2
 218 631 212 631 212 581 c 2
 212 359 l 1
 249 359 l 2
 322 359 408 400 408 502 c 0
435 182 m 0xca
 435 288 351 333 279 333 c 2
 212 333 l 1
 212 85 l 2
 212 40 220 31 247 31 c 2
 301 31 l 2
 394 31 435 102 435 182 c 0xca
EndSplineSet
Validated: 1
EndChar

StartChar: C
Encoding: 67 67 29
Width: 710
VWidth: 0
Flags: W
HStem: -18 32<299.63 465.365> 640 27<301.475 451.57>
VStem: 20 107<203.731 437.115> 599 18<477.035 506.403>
LayerCount: 3
Fore
SplineSet
127 320 m 0
 127 118 252 14 384 14 c 0
 545 14 600 169 606 171 c 0
 611 173 617 170 617 167 c 2
 617 167 612 98 607 59 c 0
 603 28 602 32 581 28 c 0
 568 26 552 23 544 19 c 0
 480 -8 424 -18 372 -18 c 0
 139 -18 20 155 20 322 c 0
 20 485 141 667 375 667 c 0
 482 667 572 614 574 614 c 0
 576 614 577 616 579 619 c 2
 585 629 l 2
 588 633 592 636 597 636 c 0
 604 636 608 636 609 616 c 0
 614 539 617 499 617 486 c 0
 617 480 617 477 609 477 c 0
 600 477 600 482 599 485 c 0
 575 563 480 640 378 640 c 0
 215 640 127 479 127 320 c 0
EndSplineSet
Validated: 1
EndChar

StartChar: D
Encoding: 68 68 30
Width: 730
VWidth: 0
Flags: W
HStem: -2 33<47.7487 108.539 216.623 397.724> 618 33<36.2541 107.9 183.31 405.675>
VStem: 112 100<34.0465 614.081> 575 114<203.425 449.82>
LayerCount: 3
Fore
SplineSet
150 644 m 0
 184 644 245 651 313 651 c 0
 443 651 689 614 689 338 c 0
 689 8 390 -2 278 -2 c 0
 223 -2 162 1 160 1 c 0
 109 1 69 -4 61 -4 c 0
 50 -4 46 -3 47 16 c 0
 48 26 51 25 91 28 c 0
 98 29 112 29 112 85 c 2
 112 562 l 2
 112 609 109 616 64 616 c 2
 54 616 l 2
 39 616 36 620 36 629 c 0
 36 634 36 648 47 648 c 0
 60 648 72 644 150 644 c 0
212 571 m 2
 212 85 l 2
 212 32 220 31 280 31 c 2
 290 31 l 2
 534 31 575 219 575 317 c 0
 575 446 529 520 468 569 c 0
 415 612 354 618 286 618 c 0
 212 618 212 611 212 571 c 2
EndSplineSet
Validated: 1
EndChar

StartChar: H
Encoding: 72 72 34
Width: 812
VWidth: 0
Flags: W
HStem: -5 31<38.0019 116.478 232.093 336.974 498.002 589.478 703.778 769.993> 312 31<223 596> 621 31<46.003 114.209 233.145 333.953 504.005 587.209 707.944 773.966>
VStem: 123 100<30.9547 312 343 616.147> 596 100<28.9603 312 343 615.995>
LayerCount: 3
Fore
SplineSet
223 127 m 2
 223 34 224 29 281 26 c 2
 320 24 l 2
 335 23 337 18 337 9 c 0
 337 2 335 -5 327 -5 c 0
 293 -5 222 1 178 1 c 0
 118 1 73 -5 50 -5 c 0
 37 -5 38 3 38 8 c 2
 38 12 l 2
 38 29 68 22 98 28 c 0
 120 32 123 42 123 129 c 2
 123 520 l 2
 123 600 123 616 81 621 c 0
 70 622 62 623 57 623 c 0
 45 624 46 626 46 637 c 0
 46 648 47 652 60 652 c 0
 71 652 136 647 171 647 c 0
 241 647 301 652 324 652 c 0
 333 652 334 641 334 635 c 0
 334 622 327 621 308 621 c 2
 266 621 l 2
 229 621 223 603 223 512 c 2
 223 343 l 1
 596 343 l 1
 596 520 l 2
 596 600 596 616 554 621 c 0
 544 622 515 622 509 624 c 0
 502 626 504 630 504 633 c 2
 504 639 l 2
 504 650 506 652 539 652 c 0
 550 652 609 647 644 647 c 0
 714 647 741 652 764 652 c 0
 773 652 774 641 774 635 c 0
 774 622 769 621 750 621 c 0
 712 620 696 623 696 512 c 2
 696 127 l 2
 696 48 699 31 727 26 c 0
 768 19 770 27 770 9 c 0
 770 2 770 -5 762 -5 c 0
 713 -5 683 1 649 1 c 0
 601 1 540 -5 510 -5 c 0
 497 -5 498 3 498 8 c 2
 498 12 l 2
 498 29 536 21 571 28 c 0
 593 32 596 42 596 129 c 2
 596 312 l 1
 223 312 l 1
 223 127 l 2
EndSplineSet
Validated: 1
EndChar

StartChar: I
Encoding: 73 73 35
Width: 332
VWidth: 0
Flags: W
HStem: -5 31<39.0019 100.305 214.32 284.961> 621 31<29.3262 94.4169 216.619 278.953>
VStem: 106 100<28.7165 614.048>
LayerCount: 3
Fore
SplineSet
106 129 m 2
 106 523 l 2
 106 606 101 615 57 621 c 0
 29.1860717542 624.792808397 29 622 29 633 c 2
 29 639 l 2
 29 650 36 652 49 652 c 0
 60 652 119 647 154 647 c 0
 224 647 246 652 269 652 c 0
 278 652 279 641 279 635 c 0
 279 622 272 621 253 621 c 2
 247 621 l 2
 214 621 206 603 206 512 c 2
 206 127 l 2
 206 52 209 31 237 26 c 0
 273 20 285 28 285 9 c 0
 285 2 283 -5 275 -5 c 0
 268 -5 216 1 159 1 c 0
 111 1 77 -5 51 -5 c 0
 38 -5 39 3 39 8 c 2
 39 12 l 2
 39 28 55 21 81 26 c 0
 103 30 106 42 106 129 c 2
EndSplineSet
Validated: 1
EndChar

StartChar: J
Encoding: 74 74 36
Width: 304
VWidth: 0
Flags: W
HStem: -210 76<-37 88> 621 31<29.0089 102.988 212.885 274.988>
VStem: 108 100<-39.0509 617.663>
LayerCount: 3
Fore
SplineSet
44 621 m 2
 30 621 29 631 29 637 c 0
 29 645 32 652 41 652 c 0
 70 652 110 647 154 647 c 16
 198 647 232 652 265 652 c 0
 271 652 275 646 275 637 c 0
 275 621 258 622 248 621 c 0
 224 618 208 621 208 575 c 2
 208 78 l 2
 208 -49 149 -121 79 -169 c 0
 40 -196 3 -210 -16 -210 c 0
 -58 -210 -84 -174 -84 -142 c 0
 -84 -112 -67 -85 -29 -85 c 0
 15 -85 37 -134 72 -134 c 0
 104 -134 108 -29 108 55 c 2
 108 563 l 2
 108 609 107 621 52 621 c 2
 44 621 l 2
EndSplineSet
Validated: 1
EndChar

StartChar: N
Encoding: 78 78 39
Width: 810
VWidth: 0
Flags: W
HStem: -5 31<56.0021 134.625 198.937 287.988> 623 32<38.0466 116.045 538.007 631.317 700.824 778.894>
VStem: 152 33<42.9592 347.298> 651 36<451.403 604.552> 652 27<256.597 524.104>
LayerCount: 3
Fore
SplineSet
667 0 m 2xe8
 662 0 l 2
 661 0 656 0 654 2 c 0
 649 7 637 19 616 43 c 0
 437 245 196 516 193 516 c 0
 191 516 185 283 185 153 c 0
 185 124 186 101 186 86 c 0
 188 18 224 31 265 26 c 0
 280 24 288 25 288 11 c 0
 288 3 284 -5 273 -5 c 0
 257 -5 199 2 170 2 c 0
 138 2 90 -5 76 -5 c 0
 56 -5 56 4 56 10 c 0
 56 22 57 26 73 26 c 0
 136 26 148 39 152 110 c 0
 158 235 159 361 159 444 c 2
 159 542 l 2
 159 555 158 559 147 572 c 0
 121 604 113 624 51 625 c 0
 40 625 38 626 38 642 c 0
 38 650 42 656 49 656 c 0
 100 654 149 650 216 650 c 0
 223 650 234 637 276 589 c 0
 541 282 646 163 649 163 c 0
 651 163 652 204 652 450 c 0xe8
 652 480 652 506 651 525 c 0
 649 567 650 623 589 623 c 0
 576 623 567 622 555 622 c 0
 548 622 538 623 538 639 c 0
 538 652 542 655 561 655 c 0
 571 655 610 650 670 650 c 0
 695 650 754 655 766 655 c 0
 775 655 779 650 779 641 c 0
 779 626 766 626 754 625 c 0
 706 622 692 608 687 573 c 0xf0
 681 529 679 467 679 417 c 2
 679 364 l 2
 679 206 675 153 675 100 c 0
 675 72 673 41 673 26 c 0
 673 0 668 0 667 0 c 2xe8
EndSplineSet
Validated: 1
EndChar

StartChar: O
Encoding: 79 79 40
Width: 746
VWidth: 0
Flags: W
HStem: -17 33<310.968 470.399> 638 32<297.944 463.138>
VStem: 42 111<206.94 459.773> 613 98<194.92 465.522>
LayerCount: 3
Fore
SplineSet
378 638 m 0
 221 638 153 488 153 336 c 0
 153 178 229 16 390 16 c 0
 480 16 613 67 613 332 c 0
 613 515 530 638 378 638 c 0
375 670 m 0
 553 670 711 567 711 331 c 0
 711 96 549 -17 385 -17 c 0
 215 -17 42 104 42 336 c 0
 42 504 153 670 375 670 c 0
EndSplineSet
Validated: 1
EndChar

StartChar: P
Encoding: 80 80 41
Width: 555
VWidth: 0
Flags: W
HStem: -5 31<20.0222 105.51 216.79 328.917> 274 40<228.092 349.805> 631 29<25.3886 104.49 217.37 343.498>
VStem: 112 99<28.1877 300 316.034 623.503> 434 92<390.641 556.489>
LayerCount: 3
Fore
SplineSet
434 481 m 0
 434 571 355 631 283 631 c 2
 259 631 l 2
 230 631 211 631 211 581 c 2
 211 319 l 1
 211 319 240 314 263 314 c 0
 363 314 434 372 434 481 c 0
78 26 m 0
 96 28 112 29 112 85 c 2
 112 577 l 2
 112 624 106 626 53 626 c 2
 43 626 l 2
 28 626 25 630 25 639 c 0
 25 644 25 657 36 657 c 0
 114 657 135 655 162 655 c 0
 195 656 222 660 313 660 c 0
 365 660 526 631 526 469 c 0
 526 356 442 274 334 274 c 0
 272 274 212 300 212 300 c 1
 212 85 l 2
 212 40 216 26 249 26 c 2
 303 26 l 2
 322 26 329 25 329 15 c 2
 329 8 l 2
 329 -4 328 -5 307 -5 c 0
 294 -5 181 1 160 1 c 0
 129 1 54 -5 45 -5 c 0
 20 -5 20 -4 20 8 c 0
 20 17 20 21 37 23 c 0
 47 24 60 24 78 26 c 0
EndSplineSet
Validated: 1
EndChar

StartChar: T
Encoding: 84 84 45
Width: 730
VWidth: 0
Flags: W
HStem: -5 31<217.003 306.39 429.166 523.985> 613 34<101.535 313.386 421.352 642.61>
VStem: 318 100<31.5945 611.648>
LayerCount: 3
Fore
SplineSet
633 647 m 2
 641 647 668 663 672 663 c 0
 677 663 679 658 682 646 c 2
 692 608 l 2
 699 584 713 540 713 537 c 0
 713 534 706 531 702 531 c 0
 698 531 671 566 643 596 c 0
 629 611 619 613 598 613 c 2
 455 613 l 2
 436 613 420 609 420 586 c 0
 419 503 418 240 418 160 c 2
 418 128 l 2
 418 37 428 28 466 26 c 2
 504 24 l 2
 523 23 524 24 524 9 c 0
 524 -2 519 -5 513 -5 c 0
 476 -5 421 1 369 1 c 0
 318 1 286 -5 229 -5 c 0
 217 -5 217 3 217 11 c 0
 217 23 221 24 229 24 c 0
 259 25 239 24 280 26 c 0
 313 27 312 57 314 90 c 0
 316 116 318 248 318 354 c 2
 318 516 l 2
 318 610 316 613 280 613 c 2
 182 613 l 2
 115 613 118 611 93 589 c 0
 50 551 36 539 33 539 c 0
 31 539 21 541 21 548 c 0
 21 551 54 635 61 659 c 0
 62 664 66 666 69 666 c 0
 76 666 95 647 108 647 c 6
 633 647 l 2
EndSplineSet
Validated: 1
EndChar

StartChar: period
Encoding: 46 46 53
Width: 320
VWidth: 0
Flags: W
HStem: -14 106<112.315 197.685>
VStem: 102 106<-3.68506 81.6851>
LayerCount: 3
Fore
SplineSet
102 39 m 0
 102 69 125 92 155 92 c 0
 185 92 208 69 208 39 c 0
 208 9 185 -14 155 -14 c 0
 125 -14 102 9 102 39 c 0
EndSplineSet
Validated: 1
EndChar

StartChar: comma
Encoding: 44 44 54
Width: 306
VWidth: 0
Flags: W
HStem: -1 99<91.7653 164.309>
VStem: 166 55<-83.2435 38>
LayerCount: 3
Fore
SplineSet
125 -164 m 0
 117 -164 106 -155 106 -145 c 0
 106 -138 115 -134 131 -118 c 0
 156 -92 166 -48 166 -31 c 0
 166 -6 157 -1 147 -1 c 0
 140 -1 134 -3 127 -3 c 0
 99 -3 78 8 78 41 c 0
 78 77 110 98 143 98 c 0
 181 98 221 71 221 5 c 0
 221 -63 183 -118 155 -145 c 0
 143 -157 134 -164 125 -164 c 0
EndSplineSet
Validated: 1
Layer: 2
SplineSet
125 -164 m 4
 117 -164 106 -155 106 -145 c 4
 106 -138 115 -134 131 -118 c 4
 156 -92 166 -48 166 -31 c 4
 166 -8 158 3 158 3 c 5
 158 3 145 -3 127 -3 c 4
 99 -3 78 8 78 41 c 4
 78 77 110 98 143 98 c 4
 181 98 221 71 221 5 c 4
 221 -63 183 -118 155 -145 c 4
 143 -157 134 -164 125 -164 c 4
EndSplineSet
EndChar

StartChar: hyphen
Encoding: 45 45 55
Width: 316
VWidth: 0
Flags: W
HStem: 172 58<23.0007 289>
VStem: 23 266<172 230>
LayerCount: 3
Fore
SplineSet
26 230 m 2
 286 230 l 2
 289 230 289 222 289 213 c 2
 289 185 l 2
 289 177 289 172 286 172 c 2
 26 172 l 2
 23 172 23 182 23 196 c 2
 23 215 l 2
 23 224 23 230 26 230 c 2
EndSplineSet
Validated: 1
EndChar

StartChar: colon
Encoding: 58 58 56
Width: 320
VWidth: 0
Flags: W
HStem: -9 94<125.394 204.606> 261 94<125.394 204.606>
VStem: 118 94<-1.60614 77.6061 268.394 347.606>
LayerCount: 3
Fore
SplineSet
118 308 m 0
 118 334 139 355 165 355 c 0
 191 355 212 334 212 308 c 0
 212 282 191 261 165 261 c 0
 139 261 118 282 118 308 c 0
118 38 m 0
 118 64 139 85 165 85 c 0
 191 85 212 64 212 38 c 0
 212 12 191 -9 165 -9 c 0
 139 -9 118 12 118 38 c 0
EndSplineSet
Validated: 1
EndChar

StartChar: semicolon
Encoding: 59 59 57
Width: 328
VWidth: 0
Flags: W
HStem: 8 93<121.195 195.838> 261 94<124.394 203.606>
VStem: 117 94<268.394 347.606> 197 52<-74.7171 38.5>
LayerCount: 3
Fore
SplineSet
191 -120 m 0xd0
 161 -153 141 -155 138 -155 c 0
 131 -155 127 -150 125 -143 c 0
 123 -136 127 -132 135 -125 c 0
 170 -94 197 -51 197 -23 c 0
 197 -4 186 8 158 8 c 0
 124 8 108 27 108 48 c 0
 108 73 132 101 173 101 c 0
 211 101 249 70 249 7 c 0
 249 -62 214 -95 191 -120 c 0xd0
117 308 m 0xe0
 117 334 138 355 164 355 c 0
 190 355 211 334 211 308 c 0
 211 282 190 261 164 261 c 0
 138 261 117 282 117 308 c 0xe0
EndSplineSet
Validated: 1
EndChar

StartChar: exclam
Encoding: 33 33 58
Width: 324
VWidth: 0
Flags: W
HStem: -11 88<124.44 199.56>
VStem: 118 88<-4.56006 70.5601 370.443 626> 146 23<208.295 314.302>
LayerCount: 3
Fore
SplineSet
139 626 m 2xa0
 191 626 l 2
 206 626 212 617 212 608 c 0
 212 599 209 607 169 214 c 0
 168 206 147 205 146 215 c 0
 130 530 131 483 119 608 c 0
 118 616 126 626 139 626 c 2xa0
118 33 m 0xc0
 118 57 138 77 162 77 c 0
 186 77 206 57 206 33 c 0
 206 9 186 -11 162 -11 c 0
 138 -11 118 9 118 33 c 0xc0
EndSplineSet
Validated: 1
EndChar

StartChar: question
Encoding: 63 63 59
Width: 352
VWidth: 0
Flags: W
HStem: -12 82<82.0781 153.922> 516 71<108.986 233.683>
VStem: 77 82<-6.92188 64.9219> 104 34<150.475 238.306> 277 25<331.057 460.865>
LayerCount: 3
Fore
SplineSet
104 516 m 2xd8
 92 516 84 532 84 578 c 0
 84 611 89 618 97 618 c 0
 104 618 104 614 120 595 c 0
 126 587 128 587 140 587 c 0
 223 587 247 557 258 541 c 0
 286 501 302 472 302 380 c 0
 302 297 280 257 239 251 c 0
 148 238 140 241 138 221 c 0
 136 193 132 156 128 150 c 0
 124 144 116 144 113 150 c 0
 108 159 104 241 104 292 c 0
 104 303 106 310 122 310 c 2
 210 310 l 2
 276 310 277 346 277 416 c 0
 277 465 236 516 155 516 c 2
 104 516 l 2xd8
77 29 m 0xe8
 77 51 96 70 118 70 c 0
 140 70 159 51 159 29 c 0
 159 7 140 -12 118 -12 c 0
 96 -12 77 7 77 29 c 0xe8
EndSplineSet
Validated: 1
EndChar

StartChar: parenleft
Encoding: 40 40 60
Width: 408
VWidth: 0
Flags: W
HStem: 659 20G<287.5 291>
VStem: 37 82<91.014 347.445>
LayerCount: 3
Fore
SplineSet
305 -210 m 0
 305 -212 291 -226 279 -226 c 0
 275 -226 267 -221 253 -206 c 0
 63 0 37 131 37 215 c 0
 37 426 211 607 274 670 c 0
 280 676 286 679 289 679 c 0
 293 679 310 667 310 659 c 0
 310 652 300 646 277 620 c 0
 179 509 119 365 119 216 c 0
 119 96 169 -60 283 -184 c 0
 297 -199 305 -205 305 -210 c 0
EndSplineSet
Validated: 1
EndChar

StartChar: parenright
Encoding: 41 41 61
Width: 408
VWidth: 0
Flags: W
HStem: 658 20G<58.5 61.5>
VStem: 229 78<89.9467 353.291>
LayerCount: 3
Fore
SplineSet
42 -210 m 0
 42 -205 50 -199 64 -184 c 0
 178 -60 229 72 229 216 c 0
 229 377 168 509 70 620 c 0
 47 646 42 650 42 657 c 0
 42 665 57 678 60 678 c 0
 63 678 69 676 75 670 c 0
 138 607 307 442 307 215 c 0
 307 146 296 23 92 -206 c 0
 78.3517913245 -221.320783268 72 -224 69 -224 c 0
 60 -224 42 -212 42 -210 c 0
EndSplineSet
Validated: 1
EndChar

StartChar: bracketleft
Encoding: 91 91 62
Width: 355
VWidth: 0
Flags: W
HStem: -230 39<137.579 260.729> -222 27<114.06 227.335> 620 38<122.859 273.994>
VStem: 44 70<-194.999 25.1812> 55 68<66.5605 626.003>
LayerCount: 3
Fore
SplineSet
55 299 m 0x68
 55 609 51 609 51 643 c 0
 51 653 69 656 98 656 c 0
 144 656 213 657 264 658 c 0
 272 658 274 649 274 641 c 2
 274 633 l 2
 274 621 263 620 255 620 c 0
 220 622 169 626 143 626 c 0
 128 626 123 630 123 614 c 2x68
 114 -179 l 2
 114 -194 119 -195 135 -195 c 0x70
 190 -195 246 -191 248 -191 c 0
 255 -191 261 -193 261 -218 c 0
 261 -223 256 -230 229 -230 c 0xb0
 194 -230 125 -222 78 -222 c 0
 47 -222 44 -217 44 -206 c 0x70
 44 -191 55 8 55 299 c 0x68
EndSplineSet
Validated: 1
EndChar

StartChar: bracketright
Encoding: 93 93 63
Width: 355
VWidth: 0
Flags: W
HStem: -228 37<44.0354 193> 620 41<47.0586 175.467> 625 29<64.3813 194.996>
VStem: 193 66<-194.998 625.001> 195 70<1.37086 625.001>
LayerCount: 3
Fore
SplineSet
258 -17 m 0xa8
 258 -129 259 -197 259 -206 c 0
 259 -217 258 -224 231 -224 c 0
 219 -224 97 -228 62 -228 c 0
 48 -228 44 -220 44 -208 c 0
 44 -194 47 -191 54 -191 c 0
 78 -192 139 -195 175 -195 c 0
 188 -195 193 -193 193 -179 c 2xb0
 195 614 l 2
 195 627 189 625 179 625 c 0xa8
 103 625 67 620 62 620 c 0
 52 620 47 633 47 642 c 0
 47 652 52 661 62 661 c 0xc8
 113 660 151 654 240 654 c 0
 265 654 265 650 265 641 c 0
 265 575 258 378 258 -17 c 0xa8
EndSplineSet
Validated: 1
EndChar

StartChar: quoteleft
Encoding: 8216 8216 64
Width: 278
VWidth: 0
Flags: W
HStem: 409 90<119.091 193.881> 659 20G<162.5 179>
VStem: 68 48<468.354 587.594>
LayerCount: 3
Fore
SplineSet
193 664 m 0
 193 657 186 651 169 635 c 0
 143 610 116 574 116 539 c 0
 116 512 125 502 146 499 c 0
 157 498 201 503 201 455 c 0
 201 433 185 409 146 409 c 0
 115 409 68 436 68 502 c 0
 68 594 149 679 176 679 c 0
 182 679 193 675 193 664 c 0
EndSplineSet
Validated: 1
EndChar

StartChar: quoteright
Encoding: 8217 8217 65
Width: 244
VWidth: 0
Flags: W
HStem: 579 98<80.8125 143.291>
VStem: 145 53<512.253 617>
LayerCount: 3
Fore
SplineSet
123 579 m 0
 103 579 69 581 69 622 c 0
 69 646 87 677 128 677 c 0
 165 677 198 641 198 593 c 0
 198 541 163 480 134 444 c 0
 119 426 109 414 100 414 c 0
 91 414 84 420 83 430 c 0
 82 437 88 442 98 454 c 0
 129 491 145 527 145 551 c 0
 145 567 143 579 123 579 c 0
EndSplineSet
Validated: 1
EndChar
